<svg width="329" height="123" viewBox="0 0 329 123" fill="none" xmlns="http://www.w3.org/2000/svg">
<path fill-rule="evenodd" clip-rule="evenodd" d="M96.352 10.8864V26.6063L87.6793 32.6271H82.3476V29.951L78.3478 32.6271H73.6817V29.951L70.682 32.6271H62.0168L59.3509 29.951L58.684 32.6271L51.0353 32.6065L48.0192 29.951L47.6861 32.6271L39.0208 32.6065L38.6877 29.951L36.355 32.6065L23.0237 32.6271L20.3571 31.2891V32.6271H13.0245L5.02561 27.61L0.0263672 22.5929V0.518555H10.358L15.3572 5.53564H38.0207V0.518555H56.6851V5.53564H61.3512V8.2117L64.0177 5.53564H69.6839L74.6832 0.518555H85.3479V5.53564H91.0142L96.352 10.8864ZM13.0245 7.87599H8.35843V2.8589H2.35907V21.5899L6.02504 25.6033H13.0245V19.2482H8.35843V13.8975H13.0245V7.87599ZM38.0207 7.87599H32.0214V19.2489H29.6887V7.87599H24.0224V19.2489H21.6897V7.87599H15.3572V25.6033H34.0216L38.0207 21.5899V7.87599ZM46.0196 7.87599H40.3534V25.6033H46.0196V7.87599ZM46.0196 2.8589H40.3534V5.53496H46.0196V2.8589ZM59.0178 7.87599H54.3517V2.8589H48.353V21.5899L52.019 25.6033H59.0164V19.2482H54.3503V13.8975H59.0164L59.0178 7.87599ZM74.3487 7.87599H65.0172L61.3512 11.5551V21.5899L65.3503 25.6033H74.348V19.2482H67.6823V13.8975H74.348L74.3487 7.87599ZM94.0125 11.5551L90.0133 7.87599H83.0145V2.8589H76.682V25.6033H83.0145V13.8961H87.6806V25.6026H94.0131L94.0125 11.5551Z" fill="white"/>
<path d="M198.435 2.40527L192.635 24.9403L215.17 30.7409L220.97 8.20586L198.435 2.40527ZM208.445 19.345L204.031 18.2157L205.16 13.8011L209.575 14.9304L208.445 19.345Z" fill="white"/>
<path d="M181.546 4.9209C187.398 4.9209 190.016 8.41151 190.016 11.9021C190.016 14.0581 189.092 15.8547 187.347 17.0354C189.862 19.8587 191.351 23.7086 191.864 28.1746H181.187C180.725 22.0147 179.441 19.5507 176.669 19.5507V28.1746H166.352V4.9209H181.546ZM176.669 14.2121H176.926C178.825 14.2121 179.698 13.5448 179.698 12.0048C179.698 11.0295 179.185 9.69483 177.285 9.69483H176.669V14.2121Z" fill="white"/>
<path d="M237.961 4.9209C245.507 4.9209 246.995 8.71951 246.995 11.4401C246.995 13.3394 246.328 15.0848 243.967 16.4194C246.893 17.9594 247.611 19.756 247.611 21.758C247.611 25.3513 245.096 28.1746 239.655 28.1746H223.434V4.9209H237.961ZM233.7 14.1608H233.957C236.215 14.1608 237.037 13.5448 237.037 11.9021C237.037 10.6188 236.421 9.6435 234.316 9.6435H233.7V14.1608ZM233.7 23.0926H234.008C236.369 23.0926 237.293 22.4253 237.293 20.68C237.293 19.14 236.575 18.062 234.419 18.062H233.7V23.0926Z" fill="white"/>
<path d="M250.743 4.9209H261.061V22.3226H270.096V28.1746H250.743V4.9209Z" fill="white"/>
<path d="M273.226 4.9209V28.1746H296.479V4.9209H273.226ZM287.137 18.832H282.568V14.3148H287.085V18.832H287.137Z" fill="white"/>
<path d="M299.252 4.9209H310.494L313.933 9.1815L317.218 4.9209H328.409L319.58 16.3681L328.974 28.2259H317.68L313.984 23.606L310.442 28.2259H299.252L308.338 16.4707L299.252 4.9209Z" fill="white"/>
<path d="M137.649 55.5177C137.649 53.8991 138.96 52.5724 140.566 52.5724C141.342 52.5724 142.065 52.8908 142.626 53.4215C143.188 53.9787 143.483 54.7217 143.483 55.4912C143.483 56.2607 143.188 57.0037 142.626 57.5609C142.065 58.1182 141.342 58.4366 140.566 58.4366C138.96 58.4366 137.649 57.1364 137.649 55.5177ZM137.408 55.5177C137.408 57.269 138.827 58.7019 140.593 58.7019C141.449 58.7019 142.225 58.3835 142.814 57.7732C143.402 57.1629 143.75 56.3669 143.75 55.5177C143.75 54.6686 143.429 53.8726 142.814 53.2623C142.198 52.652 141.422 52.3336 140.593 52.3336C138.827 52.3336 137.408 53.7664 137.408 55.5177ZM139.389 57.4017H139.843V55.9158H140.86C141.021 55.9158 141.155 55.9158 141.262 55.9688C141.396 56.0484 141.476 56.2076 141.503 56.4199L141.556 57.0037V57.269C141.583 57.3221 141.583 57.3486 141.61 57.3752H142.172V57.2956C142.091 57.269 142.065 57.1894 142.038 57.0833C142.011 57.0302 142.011 56.9241 142.011 56.7914L141.984 56.3403C141.984 56.128 141.931 55.9954 141.877 55.9158C141.797 55.8362 141.69 55.7566 141.556 55.7035C141.717 55.6239 141.824 55.5177 141.904 55.3851C141.984 55.2524 142.011 55.0932 142.011 54.8809C142.011 54.4829 141.85 54.2175 141.556 54.0583C141.396 53.9787 141.181 53.9522 140.941 53.9522H139.415L139.389 57.4017ZM139.817 55.5177V54.3237H140.887C141.048 54.3237 141.181 54.3502 141.262 54.4033C141.422 54.4829 141.503 54.6686 141.503 54.9074C141.503 55.1463 141.449 55.3055 141.315 55.3851C141.208 55.4647 141.048 55.5177 140.834 55.5177H139.817ZM13.0314 59.896L0.0263672 80.1686H8.91044L21.4338 60.7982L13.0314 59.896ZM66.5766 59.4449V51.9355H41.2891C37.8372 52.1478 36.3387 53.793 35.2148 54.9605C34.0106 56.2076 33.3416 58.8346 33.3416 58.8346V51.9886H19.8817C18.8649 51.9886 17.9016 52.4132 17.1791 53.4215C16.4298 54.4033 13.3525 59.4449 13.3525 59.4449H66.5766ZM135.348 59.4449V51.9355H108.294C104.869 52.1478 103.344 53.793 102.22 54.9605C101.016 56.2076 100.347 58.8346 100.347 58.8346V59.4449H135.348ZM75.4607 51.9621H67.8878V59.4449H75.4607V51.9621ZM100.267 51.9621H92.7204V59.4449H100.267V51.9621ZM100.267 62.1514L92.8275 61.7004V70.3772C92.8275 70.3772 92.8007 72.8715 90.3656 72.8715H77.6282C77.6282 72.8715 75.4607 72.6858 75.4607 70.4038V60.5328L67.9681 60.0021V73.2961C69.1723 79.6644 74.979 80.1686 74.979 80.1686C74.979 80.1686 75.5678 80.1951 75.6748 80.2216H92.9345C92.9345 80.2216 100.32 79.6379 100.32 72.5796L100.267 62.1514ZM25.635 80.1686H61.0107C67.1653 78.948 67.8076 73.3757 67.8076 73.3757C68.1019 71.7305 67.9414 70.3772 67.9414 70.3772C67.7541 69.2628 65.6133 64.3273 61.0107 63.9027C58.2545 63.6374 33.7163 61.7004 33.7163 61.7004C34.1979 64.1416 35.2951 65.3887 36.0443 66.0786C37.7569 67.6972 40.4596 68.1748 40.4596 68.1748L59.3784 69.7404C59.9671 69.7669 61.0642 69.9261 61.0375 71.359C61.0375 71.5448 60.8769 72.7919 59.4854 72.7919H33.0205V61.6473L25.6617 61.1166C25.635 61.1166 25.635 80.1686 25.635 80.1686ZM100.32 80.2216H127.4C134.197 79.8236 135.161 73.4287 135.161 73.4287C135.401 71.757 135.214 70.3772 135.214 70.3772C135.027 68.8647 132.859 64.3008 128.23 63.8497C125.501 63.5843 100.802 62.1514 100.802 62.1514C101.524 64.6723 102.514 65.4418 103.264 66.1317C104.976 67.7768 107.518 68.1483 107.518 68.1483C108.161 68.2014 126.624 69.7404 126.624 69.7404C127.213 69.7669 128.417 69.82 128.417 71.2529C128.417 71.6774 128.203 72.1285 127.936 72.3673C127.936 72.3673 127.293 72.7123 126.678 72.7123H100.4L100.32 80.2216Z" fill="white"/>
<path d="M245.525 65.9326V65.931C245.212 64.7748 244.917 63.7471 244.651 62.9741C243.622 60.0127 242.554 56.7509 239.386 56.7224C239.386 56.7224 237.566 56.408 235.661 56.6888C235.661 56.6888 229.645 57.8458 226.173 60.3913C229.182 60.3913 233.116 59.9288 234.504 60.8543C236.306 62.0555 237.083 63.2212 237.083 65.7711C237.083 65.8266 237.081 65.8799 237.077 65.9323C237.044 66.4194 236.865 66.7688 236.754 67.252H235.767C234.82 66.5116 234.024 66.2675 232.805 65.9359C232.8 65.9339 232.794 65.9329 232.788 65.9328V65.9313C230.698 65.3641 229.281 65.2424 227.227 65.9318H227.223C227.219 65.9328 227.215 65.9346 227.211 65.9359C224.394 66.8842 222.169 68.7052 221.493 71.3036C221.328 71.9355 221.255 72.6149 221.288 73.3395C221.449 76.8364 223.888 78.9818 227.211 80.0847C229.282 80.772 230.662 80.4956 232.805 80.0847C236.075 79.4577 237.371 77.5343 240.373 76.136C240.373 77.658 240.414 80.0847 240.414 80.0847H249.257V77.7812C248.568 77.0102 247.748 74.2983 246.941 71.3036C246.454 69.4939 245.971 67.5813 245.525 65.9326ZM238.728 73.3392C238.537 75.4748 236.593 76.8898 234.45 76.7941C232.32 76.6989 230.501 75.1427 230.502 73.0102C230.499 72.4156 230.645 71.8298 230.925 71.3054C231.557 70.1271 232.828 69.3407 234.286 69.2257C235.903 69.099 237.494 69.9777 238.263 71.3034C238.614 71.9065 238.794 72.6028 238.728 73.3392ZM301.77 65.9326C301.022 62.5798 299.518 60.2419 296.311 58.6963C294.871 58.0383 294.22 57.2188 292.691 56.7221C290.129 55.8895 288.365 55.9552 285.781 56.7221C281.114 58.1076 278.343 61.2745 277.353 65.9326V65.9336C277.306 66.1527 277.264 66.3727 277.226 66.5935C276.943 68.2376 276.939 69.2278 277.226 70.8712C277.252 71.018 277.278 71.1612 277.306 71.3034C277.748 73.5484 278.447 74.9484 279.996 76.773C283.353 80.7284 287.669 82.0448 292.691 80.7428C297.646 79.4577 300.813 76.2453 301.822 71.3036H301.823C301.851 71.1607 301.879 71.0167 301.905 70.8714C302.193 69.2283 302.212 68.2335 301.905 66.5937C301.863 66.3726 301.818 66.1522 301.77 65.9326ZM292.675 79.3188C289.493 80.424 288.506 75.8293 287.012 71.3026C286.943 71.0901 286.871 70.8771 286.798 70.6656C286.618 70.1384 285.871 68.1539 285.298 65.9331H285.298C284.474 62.7408 284.01 59.0639 286.104 58.5406C289.064 57.8004 290.397 62.1474 291.451 65.9331C291.715 66.8796 291.961 67.7938 292.212 68.5828C292.534 69.4742 292.864 70.3951 293.162 71.3057H293.163C294.365 74.9795 295.057 78.4911 292.675 79.3188ZM272.426 56.7224C271.063 56.3541 270.206 56.5353 268.807 56.7224C266.126 57.0807 265.105 59.3547 262.39 59.3547C260.786 59.3547 260.757 57.2814 259.264 56.7224C257.702 56.1372 254.986 56.7224 254.986 56.7224C252.587 57.9679 250.832 58.8201 248.406 60.3415C250.215 60.3415 253.012 59.976 253.012 62.0003V80.0847H261.238V63.3034C261.238 61.987 262.39 60.9999 263.706 60.9999C265.023 60.9999 266.174 61.987 266.174 63.3034V80.0847H274.4V58.6966C274.205 57.8324 273.528 57.0199 272.426 56.7224ZM326.923 56.7224C325.559 56.3541 324.701 56.5353 323.303 56.7224C320.621 57.0807 319.6 59.3547 316.886 59.3547C315.282 59.3547 315.253 57.2814 313.76 56.7224C312.198 56.1372 309.483 56.7224 309.483 56.7224C307.083 57.9679 305.328 58.8201 302.901 60.3415C304.711 60.3415 307.508 59.976 307.508 62.0003V80.0847H315.734V63.3034C315.734 61.987 316.886 60.9999 318.202 60.9999C319.518 60.9999 320.67 61.987 320.67 63.3034V80.0847H328.896V58.6966C328.701 57.8324 328.024 57.0199 326.923 56.7224ZM220.302 58.6296C218.906 56.7835 217.923 55.8387 216.024 54.5167C212.992 52.4059 210.793 51.7758 207.14 51.2263C204.475 50.8254 202.896 50.8336 200.23 51.2263C197.578 51.6162 195.982 51.8834 193.649 53.2005C188.579 56.0618 185.834 60.0476 185.751 65.8687C185.751 65.8894 185.751 65.9102 185.751 65.9315V65.9323C185.732 67.9093 186.128 69.7008 186.854 71.3031H186.855C189.065 76.174 194.328 79.2852 200.229 80.5107C203.12 81.1111 204.885 80.9881 207.797 80.5107C210.881 80.0051 212.722 79.5449 215.365 77.8785C217.249 76.6904 218.234 75.819 219.643 74.0945L218.656 72.9429C217.361 74.4726 216.446 75.2356 214.708 76.233C212.17 77.6901 210.389 78.392 207.469 78.2075C202.984 77.9241 199.383 75.1484 197.679 71.3031H197.679C196.989 69.7455 196.61 68.012 196.61 66.1972C196.61 66.1079 196.611 66.0191 196.613 65.9323V65.93C196.755 59.0611 202.375 53.529 209.278 53.529C211.87 53.529 213.844 54.105 215.366 56.1613C212.939 59.1637 210.101 64.7168 210.101 64.7168L220.302 58.6296Z" fill="white"/>
<path fill-rule="evenodd" clip-rule="evenodd" d="M0.0263672 121.977L5.0127 99.5293H13.9143L14.3207 112.069L20.313 99.5293H29.2358L24.2291 121.977H17.7661L20.4409 109.908L14.4283 121.977H9.78401L9.54862 109.908L6.55291 121.977H0.0263672ZM30.0071 103.188H36.0197L36.8326 99.5293H30.798L30.0071 103.188ZM31.847 121.999L25.7913 121.977L29.4932 105.35H35.5489L31.847 121.999ZM54.7873 105.35H60.2012L59.7304 107.404C60.4798 106.483 61.3782 105.906 62.5128 105.521C63.4234 105.217 64.3776 105.065 65.3374 105.071L63.9463 110.485C63.6042 110.485 59.4104 109.671 58.1047 116.07L56.7567 121.997H51.0422L54.7873 105.35Z" fill="white"/>
<path fill-rule="evenodd" clip-rule="evenodd" d="M51.6208 115.835C51.6208 115.963 49.7165 122.64 41.3492 122.469C30.1353 122.234 33.0463 104.259 45.7785 104.901C53.0112 105.264 52.6479 111.277 52.5836 111.535H46.3348C46.4203 111.299 46.6345 108.817 44.6439 108.86C40.942 108.968 38.3095 118.147 42.3967 118.233C44.2798 118.298 45.1578 116.115 45.3289 115.837H51.6208V115.835ZM105.311 122.534C93.1356 122.02 96.7943 104.087 109.292 104.687C121.04 105.264 117.701 123.026 105.311 122.534ZM108.885 108.602C104.841 107.789 101.823 117.504 105.676 118.296C109.955 119.195 112.824 109.394 108.885 108.602Z" fill="white"/>
<path fill-rule="evenodd" clip-rule="evenodd" d="M128.123 102.89C126.453 102.89 126.134 103.531 125.855 104.794L125.747 105.35H129.278L130.156 101.327H135.676L134.82 105.35H137.666L136.833 109.181H133.985L132.423 116.478C132.36 116.884 132.21 117.248 132.36 117.697C132.595 118.36 134.97 118.083 134.97 118.083L134.05 121.893C134.05 121.893 129.214 122.449 127.587 121.314C126.859 120.822 126.068 119.795 126.56 117.591L128.421 109.203L125.105 109.182L122.302 121.978H116.352L119.135 109.182H116.074L116.93 105.351H119.904C120.439 103.211 120.909 101.756 122.236 100.643C124.056 99.1666 128.786 99.744 128.786 99.744L128.123 102.89ZM74.7104 116.286L86.0083 116.264C86.0083 116.264 85.0455 118.768 88.5983 118.79C91.0589 118.79 92.0217 115.987 88.7051 115.409C87.186 115.131 81.3013 114.146 81.9651 109.609C82.5222 105.886 86.3943 104.581 90.6321 104.645C99.2992 104.752 97.6734 109.845 97.7793 110.187H92.0013C92.0013 110.187 92.622 108.048 90.0115 108.048C87.6364 108.048 87.0573 110.187 89.7965 110.765C93.1359 111.493 96.9665 111.664 97.179 115.966C97.2426 117.164 96.538 122.77 87.8058 122.6C79.8026 122.429 79.2471 118.662 79.4605 116.908C78.005 119.968 74.3667 122.686 69.5099 122.515C57.334 122.13 61.0359 104.089 73.5115 104.711C79.1828 104.989 81.3445 109.29 80.6587 113.527C80.552 114.276 80.4884 114.383 80.2734 114.447L74.7104 116.286ZM73.0619 108.581C69.0594 107.79 66.0645 117.462 69.8943 118.275C74.1329 119.153 76.9788 109.374 73.0619 108.581ZM141.005 105.329C143.894 105.329 143.894 109.63 141.005 109.63C138.116 109.63 138.116 105.329 141.005 105.329ZM141.005 105.714C138.587 105.714 138.587 109.224 141.005 109.224C143.444 109.224 143.444 105.714 141.005 105.714ZM141.391 107.725L141.818 108.581H141.304L140.962 107.725H140.662L140.535 108.646H140.084L140.448 106.356H141.497C141.497 106.356 142.074 106.506 142.031 107.062C141.968 107.725 141.434 107.725 141.391 107.725ZM141.282 106.656H140.856L140.748 107.405H141.176C141.176 107.405 141.603 107.47 141.646 107.041C141.646 106.656 141.282 106.656 141.282 106.656Z" fill="white"/>
</svg>
